<svg width="46" height="46" viewBox="0 0 46 46" fill="none" xmlns="http://www.w3.org/2000/svg">
<circle cx="22.5" cy="23.2903" r="22" fill="white" stroke="#FFD43A"/>
<path d="M34.5643 24.526C35.5304 22.4935 30.2166 21.9854 30.8667 19.9204C31.6658 18.4285 30.0252 18.3631 29.2505 17.4122C27.7828 18.0016 27.9966 14.8132 27.0607 14.8132C26.1247 14.8132 25.3932 15.5263 24.9748 17.6648C24.7074 19.0267 24.4563 19.9331 24.3304 20.7551C24.2243 20.4647 24.1397 20.1835 24.0725 19.9204C23.8723 20.2633 23.5247 20.5101 23.0243 20.5101C22.4559 20.5101 22.0858 20.1916 21.9046 19.7743C21.833 20.0773 21.7364 20.4112 21.6113 20.7551C21.4845 19.934 19.5891 19.4447 20.9669 17.6648C19.3124 16.1526 19.5891 15.8878 18.881 14.8132C17.9451 14.8132 19.3124 17.4122 17.1738 17.9204C16.3991 18.8712 16.2077 19.4447 14.485 19.023C13.2264 20.4484 15.7246 24.0179 14.2754 25.5423C12.3431 27.0667 9.57888 31.4563 11.86 32.6561C12.8262 33.1642 13.5231 35.2728 15.0733 34.5279C16.2077 31.6398 17.4447 34.3084 19.3124 33.754C18.1399 30.6236 21.2585 31.7561 21.0972 30.3298C20.9359 28.9036 19.3124 27.0667 21.1619 25.9811C21.3413 25.1764 20.4897 25.3127 20.5553 24.526C21.1928 23.7022 22.5913 20.9737 22.9709 20.9737C23.3504 20.9737 23.7188 22.7893 24.3554 23.614C24.421 24.4024 26.8352 24.526 24.7798 25.9811C25.068 27.2768 27.8013 28.0829 25.869 30.1154C25.7068 31.5417 24.7617 33.1996 26.6285 33.754C28.4944 34.3075 29.7336 31.1317 30.6997 33.1642C30.6997 36.7211 35.0473 35.7049 34.9996 34.2639C34.0812 32.6561 33.5981 26.5585 34.5643 24.526Z" fill="black"/>
<path d="M24.0129 18.9078C24.0129 18.4142 24.1 12.5022 24.1302 10.4708C24.1354 10.0942 23.8507 9.79028 23.4936 9.79028H22.4507C22.0935 9.79028 21.808 10.0942 21.814 10.4708C21.8442 12.5031 21.9313 18.4142 21.9313 18.9078C21.9313 19.9575 20.8651 22.9317 19.7385 23.1122C19.484 23.1512 19.1467 23.2347 19.164 23.4769C19.1907 23.8526 20.2311 24.1238 20.9195 24.1238H20.9634C21.6613 24.113 22.0961 23.0006 22.4463 22.1051C22.6154 21.6732 22.8466 21.0826 22.9734 21.0826C23.1002 21.0826 23.3314 21.6732 23.5005 22.1051C23.849 22.9997 24.2855 24.113 24.9834 24.1238H25.0274C25.7166 24.1238 26.7561 23.8517 26.7829 23.4769C26.8001 23.2338 26.4637 23.153 26.2083 23.1122C25.0783 22.9307 24.0129 19.9575 24.0129 18.9078Z" fill="black"/>
<path d="M16.5 11.894L15 12.9459V14.5237L13 15.0497V16.6275L12 17.1534V20.3091H10V22.4128L8 22.9387L8.5 25.5684L8 27.6722L9 30.8278L8 31.8797" stroke="black"/>
<path d="M12 12.9459L10.5882 13.7764V15.022L8.70588 15.4372V16.6829L7.76471 17.0981V19.5894H5.88235V21.2502L4 21.6654L4.47059 23.7415L4 25.4024L4.94118 27.8936L4 28.7241" stroke="black"/>
<path d="M37.9015 32.637L38.3237 30.7934L37.3052 29.6351L38.4339 27.8205L37.4154 26.6622L37.81 25.5618L35.773 23.2452L37.2412 21.8167L35.8832 20.2723L37.0119 18.4577L34.9473 16.8843L33.9564 14.9828L31.1852 13.3804L31.2403 11.894" stroke="black"/>
<path d="M40.1365 28.4296L40.5795 26.9839L39.8582 26.1636L40.8495 24.6918L40.1282 23.8715L40.5037 22.9989L39.0611 21.3583L40.2929 20.1599L39.3312 19.0661L40.3225 17.5943L38.8124 16.5267L38.1587 15.1334L36.1002 14.0921L36.2352 12.946" stroke="black"/>
</svg>
