<svg width="45" height="45" viewBox="0 0 45 45" fill="none" xmlns="http://www.w3.org/2000/svg">
<circle cx="22.5" cy="22.5" r="22" fill="white" stroke="#8E8A82"/>
<path d="M15.8509 19.4639H16.8629V14.4529H15.8509V16.4239H13.8689V14.4529H12.8569V19.4639H13.8689V17.2719H15.8509V19.4639Z" fill="black"/>
<path d="M19.0368 19.4639H20.0478V15.2999H21.5318V14.4529H17.5498V15.2999H19.0368V19.4639Z" fill="black"/>
<path d="M23.1109 15.5189L24.1029 19.4639H25.0759L26.0709 15.5189V19.4639H27.0119V14.4529H25.4939L24.5949 17.8709L23.6859 14.4529H22.1709V19.4639H23.1109V15.5189Z" fill="black"/>
<path d="M29.0559 14.4939H28.0439V19.4639H31.5709V18.6199H29.0559V14.4939Z" fill="black"/>
<path d="M34.5 10.962L29.538 6H9.5V38H34.5V10.962ZM34 37.5H10V6.5H29.331L34 11.169V37.5Z" fill="black"/>
<path d="M29.4928 30.292H14.5068V30.792H29.4928V30.292Z" fill="black"/>
<path d="M29.4928 26.75H14.5068V27.25H29.4928V26.75Z" fill="black"/>
</svg>
