<svg width="20" height="20" viewBox="0 0 20 20" fill="none" xmlns="http://www.w3.org/2000/svg">
<path fill-rule="evenodd" clip-rule="evenodd" d="M0.232108 16.3089L8.10511 1.12986C8.47195 0.420196 9.17761 0 9.99933 0C10.8224 0 11.528 0.420196 11.8949 1.12986L19.7679 16.3089C20.1067 16.9612 20.0734 17.6776 19.6758 18.2965C19.2783 18.9168 18.6287 19.2663 17.8723 19.2663H2.12632C1.37131 19.2663 0.72167 18.9168 0.324151 18.2965C-0.0733672 17.6776 -0.106716 16.9612 0.232108 16.3089ZM2.39845 17.0173H17.6015L9.99933 2.35977L2.39845 17.0173ZM9.77656 15.6873H10.2221C10.5676 15.6873 10.8491 15.3952 10.8491 15.039V14.7162C10.8491 14.3587 10.5676 14.0679 10.2221 14.0679H9.77656C9.43239 14.0679 9.15093 14.3587 9.15093 14.7162V15.039C9.15093 15.3952 9.43239 15.6873 9.77656 15.6873ZM9.62048 6.48969H10.3795C10.6383 6.48969 10.8491 6.70846 10.8491 6.97659V12.4351C10.8491 12.7019 10.6383 12.922 10.3795 12.922H9.62048C9.3617 12.922 9.15093 12.7019 9.15093 12.4351V6.97659C9.15093 6.70846 9.3617 6.48969 9.62048 6.48969ZM1.23391 16.8292C1.08184 17.1227 1.09651 17.4095 1.27526 17.6882C1.47002 17.9924 1.76749 18.1365 2.12632 18.1365H17.8723C18.2325 18.1365 18.53 17.9924 18.7247 17.6882C18.9035 17.4095 18.9181 17.1227 18.7661 16.8292L10.8931 1.64877C10.713 1.30327 10.3862 1.12986 9.99933 1.12986C9.61381 1.12986 9.28699 1.30327 9.10691 1.64877L1.23391 16.8292Z" fill="#FF4747"/>
</svg>
