<svg width="45" height="45" viewBox="0 0 45 45" fill="none" xmlns="http://www.w3.org/2000/svg">
<circle cx="22.5" cy="22.5" r="22" fill="white" stroke="#FFA800"/>
<path d="M34.0693 25.4498C33.3809 23.3021 32.5863 20.822 31.2835 19.3466C29.9808 17.8713 29.821 18.0535 29.0192 17.0693C28.2174 16.0851 27.7022 14.9892 26.7334 14.9892C25.7646 14.9892 25.0075 15.7273 24.5744 17.9408C24.2976 19.3504 24.0378 20.2885 23.9074 21.1394C23.7976 20.8389 23.7101 20.5477 23.6405 20.2754C23.4333 20.6304 23.0735 20.8858 22.5556 20.8858C21.9672 20.8858 21.5842 20.5562 21.3966 20.1242C21.3225 20.4379 21.2225 20.7834 21.0931 21.1394C20.9618 20.2895 20.702 19.3513 20.4261 17.9408C19.9921 15.7273 19.2359 14.9892 18.2671 14.9892C17.2983 14.9892 16.7831 16.0851 15.9813 17.0693C15.1795 18.0535 15.0197 17.8713 13.717 19.3466C12.4142 20.822 11.6205 23.3021 10.9312 25.4498C10.241 27.5985 9.85793 33.6839 10.049 35.1217C10.2392 36.5594 12.7214 36.166 14.3259 35.3949C15.9295 34.6249 16.7804 35.1677 18.7135 34.5939C20.6466 34.0201 20.7279 32.526 20.5609 31.0497C20.3939 29.5734 20.3288 27.8896 20.6279 26.5486C20.8136 25.7156 20.9993 24.9127 21.0672 24.0985C21.727 23.2458 22.1074 21.3657 22.5003 21.3657C22.8931 21.3657 23.2744 23.2448 23.9333 24.0985C24.0012 24.9146 24.186 25.7175 24.3726 26.5486C24.6708 27.8896 24.6066 29.5734 24.4387 31.0497C24.2708 32.526 24.3539 34.0201 26.2861 34.5939C28.2174 35.1667 29.0701 34.6239 30.6728 35.3949C32.2773 36.166 34.7604 36.5594 34.9506 35.1217C35.1426 33.683 34.7595 27.5976 34.0693 25.4498Z" fill="black"/>
<path d="M23.5789 19.2273C23.5789 18.7165 23.6691 12.5973 23.7003 10.4946C23.7057 10.1049 23.411 9.79028 23.0414 9.79028H21.9619C21.5922 9.79028 21.2967 10.1049 21.3029 10.4946C21.3342 12.5982 21.4244 18.7165 21.4244 19.2273C21.4244 20.3139 20.3207 23.3923 19.1546 23.5791C18.8912 23.6195 18.5421 23.7059 18.56 23.9567C18.5877 24.3454 19.6645 24.6262 20.377 24.6262H20.4225C21.1449 24.615 21.5949 23.4636 21.9574 22.5367C22.1324 22.0897 22.3717 21.4784 22.503 21.4784C22.6342 21.4784 22.8735 22.0897 23.0485 22.5367C23.4092 23.4627 23.861 24.615 24.5834 24.6262H24.6289C25.3423 24.6262 26.4182 24.3445 26.4459 23.9567C26.4638 23.705 26.1156 23.6214 25.8513 23.5791C24.6816 23.3913 23.5789 20.3139 23.5789 19.2273Z" fill="black"/>
</svg>
