<svg width="30" height="30" viewBox="0 0 30 30" fill="none" xmlns="http://www.w3.org/2000/svg">
<circle cx="15" cy="15" r="14.5" fill="white" stroke="white"/>
<path d="M15 5.39999C16.1935 5.39999 17.3381 5.8741 18.182 6.71801C19.0259 7.56193 19.5 8.70652 19.5 9.89999C19.5 11.0935 19.0259 12.2381 18.182 13.082C17.3381 13.9259 16.1935 14.4 15 14.4C13.8065 14.4 12.6619 13.9259 11.818 13.082C10.9741 12.2381 10.5 11.0935 10.5 9.89999C10.5 8.70652 10.9741 7.56193 11.818 6.71801C12.6619 5.8741 13.8065 5.39999 15 5.39999ZM15 16.65C19.9725 16.65 24 18.6637 24 21.15V23.4H6V21.15C6 18.6637 10.0275 16.65 15 16.65Z" fill="#4A9F98"/>
</svg>
