<svg width="45" height="45" viewBox="0 0 45 45" fill="none" xmlns="http://www.w3.org/2000/svg">
<circle cx="22.5" cy="22.5" r="22" fill="white" stroke="#FF4747"/>
<path d="M8.5 19.0572L7.5 18.0053L8.5 16.9534L7 16.4275" stroke="black" stroke-width="0.5"/>
<path d="M11.5 16.9534L10.5 15.9015L11.5 14.8497L10 14.3237" stroke="black" stroke-width="0.5"/>
<path d="M14.0397 17.1413L13.4309 15.7986L14.7074 15.1583L13.4604 14.1357" stroke="black" stroke-width="0.5"/>
<path d="M18.0236 17.0333L16.9072 16.1201L17.7753 14.9458L16.2249 14.6198" stroke="black" stroke-width="0.5"/>
<path d="M19.3792 18.2107L19.5484 16.7338L20.9525 16.9118L20.4197 15.3459" stroke="black" stroke-width="0.5"/>
<path d="M25.5 19.2451L24.5 18.1933L25.5 17.1414L24 16.6154" stroke="black" stroke-width="0.5"/>
<path d="M28.5 17.1414L27.5 16.0895L28.5 15.0376L27 14.5117" stroke="black" stroke-width="0.5"/>
<path d="M31.0397 17.3293L30.4309 15.9866L31.7074 15.3463L30.4604 14.3237" stroke="black" stroke-width="0.5"/>
<path d="M35.0236 17.2213L33.9072 16.3081L34.7753 15.1338L33.2249 14.8078" stroke="black" stroke-width="0.5"/>
<path d="M36.3792 18.3987L36.5484 16.9218L37.9525 17.0998L37.4197 15.5339" stroke="black" stroke-width="0.5"/>
<path d="M15.1405 22.0026C14.5846 22.0026 14.1342 22.4764 14.1342 23.0612C14.1342 23.6459 14.5846 24.1198 15.1405 24.1198C15.6965 24.1198 16.1469 23.6459 16.1469 23.0612C16.1469 22.4764 15.6965 22.0026 15.1405 22.0026ZM15.1405 23.6157C14.853 23.6157 14.6134 23.3636 14.6134 23.0612C14.6134 22.7587 14.853 22.5067 15.1405 22.5067C15.4281 22.5067 15.6677 22.7587 15.6677 23.0612C15.6677 23.3636 15.4281 23.6157 15.1405 23.6157Z" fill="black"/>
<path d="M15.1406 19.5831C11.278 19.5831 8.20128 22.7488 8.06709 22.8799C8.02875 22.9303 8 22.9908 8 23.0614C8 23.1319 8.02875 23.1924 8.06709 23.2428C8.19169 23.3739 11.2684 26.5396 15.1406 26.5396C19.0128 26.5396 22.0799 23.3739 22.2141 23.2428C22.262 23.1924 22.2812 23.1319 22.2812 23.0614C22.2812 22.9908 22.2524 22.9303 22.2141 22.8799C22.0799 22.7488 19.0032 19.5831 15.1406 19.5831ZM8.59425 23.0614C9.14058 22.5472 10.8371 21.0954 13.0032 20.43C12.2939 21.0651 11.8339 22.0028 11.8339 23.0614C11.8339 24.12 12.2939 25.0576 13.0032 25.6927C10.8275 25.0273 9.13099 23.5755 8.59425 23.0614ZM15.1406 26.0355C13.5783 26.0355 12.3131 24.7047 12.3131 23.0614C12.3131 21.418 13.5783 20.0872 15.1406 20.0872C16.7029 20.0872 17.9681 21.418 17.9681 23.0614C17.9681 24.7047 16.7029 26.0355 15.1406 26.0355ZM17.278 25.6927C17.9872 25.0576 18.4473 24.12 18.4473 23.0614C18.4473 22.0028 17.9872 21.0651 17.278 20.43C19.4537 21.0954 21.1502 22.5573 21.6869 23.0614C21.1502 23.5755 19.4537 25.0273 17.278 25.6927Z" fill="black"/>
<path d="M30.8594 19.5831C26.9968 19.5831 23.9201 22.7488 23.786 22.8799C23.738 22.9303 23.7189 22.9908 23.7189 23.0614C23.7189 23.1319 23.7476 23.1924 23.786 23.2428C23.9106 23.3739 26.9872 26.5396 30.8594 26.5396C34.7317 26.5396 37.7987 23.3739 37.9329 23.2428C37.9809 23.1924 38 23.1319 38 23.0614C38 22.9908 37.9713 22.9303 37.9329 22.8799C37.7987 22.7488 34.7221 19.5831 30.8594 19.5831ZM24.3131 23.0614C24.8594 22.5472 26.5559 21.0954 28.7221 20.43C28.0128 21.0651 27.5527 22.0028 27.5527 23.0614C27.5527 24.12 28.0128 25.0576 28.7221 25.6927C26.5463 25.0273 24.8499 23.5755 24.3131 23.0614ZM30.8594 26.0355C29.2971 26.0355 28.032 24.7047 28.032 23.0614C28.032 21.418 29.2971 20.0872 30.8594 20.0872C32.4217 20.0872 33.6869 21.418 33.6869 23.0614C33.6869 24.7047 32.4217 26.0355 30.8594 26.0355ZM32.9968 25.6927C33.7061 25.0576 34.1662 24.12 34.1662 23.0614C34.1662 22.0028 33.7061 21.0651 32.9968 20.43C35.1725 21.0954 36.869 22.5573 37.4058 23.0614C36.869 23.5755 35.1725 25.0273 32.9968 25.6927Z" fill="black"/>
<path d="M30.8594 22.0026C30.3035 22.0026 29.853 22.4764 29.853 23.0612C29.853 23.6459 30.3035 24.1198 30.8594 24.1198C31.4153 24.1198 31.8658 23.6459 31.8658 23.0612C31.8658 22.4764 31.4153 22.0026 30.8594 22.0026ZM30.8594 23.6157C30.5719 23.6157 30.3323 23.3636 30.3323 23.0612C30.3323 22.7587 30.5719 22.5067 30.8594 22.5067C31.147 22.5067 31.3866 22.7587 31.3866 23.0612C31.3866 23.3636 31.147 23.6157 30.8594 23.6157Z" fill="black"/>
<path d="M12 23.7906L11.5 24.3165H10.5H10" stroke="black" stroke-width="0.5"/>
<path d="M9.98582 22.8075L10.6475 22.5453L11.5585 22.979L12.014 23.1959" stroke="black" stroke-width="0.5"/>
<path d="M18 24.2698L18.6617 24.0075L19.5727 24.4413L20.0282 24.6581" stroke="black" stroke-width="0.5"/>
<path d="M19.985 21.9959L19.5361 22.5706L18.5409 22.6733L18.0433 22.7246" stroke="black" stroke-width="0.5"/>
<path d="M27.9905 21.6868L27.5416 22.2616L26.5464 22.3642L26.0488 22.4156" stroke="black" stroke-width="0.5"/>
<path d="M26.1059 24.7502L26.4887 24.1248L27.466 23.902L27.9546 23.7906" stroke="black" stroke-width="0.5"/>
<path d="M36.0437 22.9766L35.4904 23.4397L34.4968 23.3207L34 23.2613" stroke="black" stroke-width="0.5"/>
<path d="M9.00015 27.606C9.51689 28.1534 9.52097 28.7528 9.52001 28.813L9.51945 28.8191V28.8387C9.51945 29.1401 9.28632 29.3854 8.99971 29.3854C8.7149 29.3854 8.48285 29.1431 8.48001 28.8442C8.48009 28.8413 8.48013 28.8383 8.48017 28.8353L8.48029 28.8257L8.48005 28.816C8.47937 28.7861 8.47145 28.1672 9.00015 27.606ZM9.00027 26.9462C9.00019 26.9463 9.00007 26.9464 8.99999 26.9464C8.99991 26.9464 8.99979 26.9463 8.99971 26.9462L8.99947 26.9469C8.00004 27.6985 7.9976 28.7216 8.00024 28.8289C8.0002 28.8322 8 28.8354 8 28.8387C8 29.4195 8.44757 29.8903 8.99971 29.8903C9.55189 29.8903 9.99946 29.4195 9.99946 28.8387C9.99946 28.8387 10.0564 27.741 9.00051 26.9468L9.00027 26.9462Z" fill="black"/>
<path d="M11.0001 28.6578C11.5169 29.2053 11.521 29.8047 11.52 29.8649L11.5194 29.8709V29.8906C11.5194 30.192 11.2863 30.4372 10.9997 30.4372C10.7149 30.4372 10.4829 30.195 10.48 29.8961C10.4801 29.8931 10.4801 29.8902 10.4802 29.8872L10.4803 29.8775L10.4801 29.8679C10.4794 29.8379 10.4715 29.2191 11.0001 28.6578ZM11.0003 27.9981C11.0002 27.9982 11.0001 27.9983 11 27.9983C10.9999 27.9983 10.9998 27.9982 10.9997 27.9981L10.9995 27.9987C10 28.7504 9.9976 29.7735 10.0002 29.8808C10.0002 29.8841 10 29.8873 10 29.8906C10 30.4714 10.4476 30.9422 10.9997 30.9422C11.5519 30.9422 11.9995 30.4714 11.9995 29.8906C11.9995 29.8906 12.0564 28.7929 11.0005 27.9987L11.0003 27.9981Z" fill="black"/>
<path d="M22.0001 26.5541C22.5169 27.1015 22.521 27.7009 22.52 27.7612L22.5194 27.7672V27.7868C22.5194 28.0883 22.2863 28.3335 21.9997 28.3335C21.7149 28.3335 21.4829 28.0912 21.48 27.7923C21.4801 27.7894 21.4801 27.7864 21.4802 27.7835L21.4803 27.7738L21.4801 27.7641C21.4794 27.7342 21.4715 27.1153 22.0001 26.5541ZM22.0003 25.8944C22.0002 25.8944 22.0001 25.8945 22 25.8946C21.9999 25.8945 21.9998 25.8944 21.9997 25.8944L21.9995 25.895C21 26.6466 20.9976 27.6697 21.0002 27.777C21.0002 27.7803 21 27.7835 21 27.7868C21 28.3677 21.4476 28.8384 21.9997 28.8384C22.5519 28.8384 22.9995 28.3676 22.9995 27.7868C22.9995 27.7868 23.0564 26.6891 22.0005 25.895L22.0003 25.8944Z" fill="black"/>
<path d="M26.0001 28.6578C26.5169 29.2053 26.521 29.8047 26.52 29.8649L26.5194 29.8709V29.8906C26.5194 30.192 26.2863 30.4372 25.9997 30.4372C25.7149 30.4372 25.4829 30.195 25.48 29.8961C25.4801 29.8931 25.4801 29.8902 25.4802 29.8872L25.4803 29.8775L25.4801 29.8679C25.4794 29.8379 25.4715 29.2191 26.0001 28.6578ZM26.0003 27.9981C26.0002 27.9982 26.0001 27.9983 26 27.9983C25.9999 27.9983 25.9998 27.9982 25.9997 27.9981L25.9995 27.9987C25 28.7504 24.9976 29.7735 25.0002 29.8808C25.0002 29.8841 25 29.8873 25 29.8906C25 30.4714 25.4476 30.9422 25.9997 30.9422C26.5519 30.9422 26.9995 30.4714 26.9995 29.8906C26.9995 29.8906 27.0564 28.7929 26.0005 27.9987L26.0003 27.9981Z" fill="black"/>
<path d="M38.0001 26.5541C38.5169 27.1015 38.521 27.7009 38.52 27.7612L38.5194 27.7672V27.7868C38.5194 28.0883 38.2863 28.3335 37.9997 28.3335C37.7149 28.3335 37.4829 28.0912 37.48 27.7923C37.4801 27.7894 37.4801 27.7864 37.4802 27.7835L37.4803 27.7738L37.4801 27.7641C37.4794 27.7342 37.4715 27.1153 38.0001 26.5541ZM38.0003 25.8944C38.0002 25.8944 38.0001 25.8945 38 25.8946C37.9999 25.8945 37.9998 25.8944 37.9997 25.8944L37.9995 25.895C37 26.6466 36.9976 27.6697 37.0002 27.777C37.0002 27.7803 37 27.7835 37 27.7868C37 28.3677 37.4476 28.8384 37.9997 28.8384C38.5519 28.8384 38.9995 28.3676 38.9995 27.7868C38.9995 27.7868 39.0564 26.6891 38.0005 25.895L38.0003 25.8944Z" fill="black"/>
</svg>
