<svg width="45" height="46" viewBox="0 0 45 46" fill="none" xmlns="http://www.w3.org/2000/svg">
<circle cx="22.5" cy="23.2903" r="22" fill="white" stroke="#8E8A82"/>
<path d="M11.0222 35.844V39H35.3012V13.731L28.5732 7H11.0222V23.958H8.69824V33.534L11.0152 35.851L11.0222 35.844ZM28.6522 7.786L34.6782 13.814H28.6522V7.786ZM11.5222 7.5H28.1522V14.314H34.8012V38.5H11.5222V33.681H33.2902V23.958H11.5222V7.5ZM9.19824 24.458H32.7902V33.181H9.19824V24.458ZM11.0222 33.681V35.153L9.55124 33.681H11.0222Z" fill="black"/>
<path d="M17.2861 26.374H17.0411H15.0581V31.296H15.9921V29.706H17.0921L17.3081 29.702C17.9811 29.702 18.4281 29.594 18.6491 29.378C18.8701 29.161 18.9811 28.724 18.9811 28.065C18.9811 27.402 18.8651 26.954 18.6331 26.722C18.4011 26.489 17.9521 26.374 17.2861 26.374ZM17.8611 28.773C17.7471 28.871 17.4781 28.919 17.0551 28.919H15.9921V27.159H17.1501C17.5491 27.159 17.7961 27.209 17.8911 27.308C17.9861 27.408 18.0341 27.665 18.0341 28.081C18.0331 28.446 17.9761 28.676 17.8611 28.773Z" fill="black"/>
<path d="M21.9962 26.374H19.5762V31.296H22.0252C22.8012 31.296 23.3012 31.121 23.5222 30.772C23.7432 30.423 23.8542 29.632 23.8542 28.404C23.8542 27.652 23.7152 27.126 23.4412 26.825C23.1652 26.523 22.6842 26.374 21.9962 26.374ZM22.7082 30.201C22.5772 30.407 22.2882 30.51 21.8412 30.51H20.5102V27.16H21.8982C22.3332 27.16 22.6102 27.258 22.7282 27.455C22.8462 27.652 22.9052 28.114 22.9052 28.84C22.9052 29.542 22.8392 29.996 22.7082 30.201Z" fill="black"/>
<path d="M24.5352 31.296H25.4692V29.272H27.6762V28.486H25.4692V27.16H27.7952V26.374H24.5352V31.296Z" fill="black"/>
</svg>
