<svg width="25" height="25" viewBox="0 0 25 25" fill="none" xmlns="http://www.w3.org/2000/svg">
<path d="M24.75 23.5833L16.9167 15.75C18.3056 14.0833 19.1667 11.9444 19.1667 9.58333C19.1667 4.30556 14.8611 0 9.58333 0C4.30556 0 0 4.30556 0 9.58333C0 14.8611 4.30556 19.1667 9.58333 19.1667C11.9167 19.1667 14.0833 18.3333 15.75 16.9167L23.5833 24.75C23.9167 25.0833 24.4444 25.0833 24.75 24.75C25.0833 24.4167 25.0833 23.9167 24.75 23.5833ZM9.58333 17.5C5.22222 17.5 1.66667 13.9444 1.66667 9.58333C1.66667 5.22222 5.22222 1.66667 9.58333 1.66667C13.9444 1.66667 17.5 5.22222 17.5 9.58333C17.5 13.9444 13.9444 17.5 9.58333 17.5Z" fill="white"/>
</svg>
